<svg width="24" height="24" viewBox="0 0 16 17" fill="none" xmlns="http://www.w3.org/2000/svg">
<path fill-rule="evenodd" clip-rule="evenodd" d="M0 8.54469C0 12.5223 2.88889 15.8296 6.66667 16.5L6.71059 16.4647C6.69551 16.4617 6.68042 16.4588 6.66534 16.4557V10.7797H4.66534V8.54511H6.66534V6.7574C6.66534 4.74622 7.95423 3.62891 9.77645 3.62891C10.3542 3.62891 10.9765 3.71829 11.5542 3.80768V5.86354H10.532C9.55423 5.86354 9.33201 6.35516 9.33201 6.98086V8.54511H11.4653L11.1098 10.7797H9.33201V16.4557C9.31764 16.4586 9.30327 16.4615 9.2889 16.4643L9.33333 16.5C13.1111 15.8296 16 12.5223 16 8.54469C16 4.12011 12.4 0.5 8 0.5C3.6 0.5 0 4.12011 0 8.54469Z" fill="#F3EA28"/>
</svg>
