<svg width="24" height="24" viewBox="0 0 16 17" fill="none" xmlns="http://www.w3.org/2000/svg">
<path d="M1.57475 9.42634C1.32178 7.6683 1.1953 6.78929 1.55561 6.03772C1.91592 5.28616 2.68282 4.82932 4.21664 3.91563L5.13986 3.36567C6.53273 2.53595 7.22916 2.12109 7.9987 2.12109C8.76824 2.12109 9.46467 2.53595 10.8575 3.36567L11.7808 3.91563C13.3146 4.82932 14.0815 5.28616 14.4418 6.03772C14.8021 6.78929 14.6756 7.6683 14.4226 9.42634L14.2368 10.7179C13.9119 12.9762 13.7494 14.1053 12.966 14.7799C12.1826 15.4544 11.0338 15.4544 8.73608 15.4544H7.26131C4.96361 15.4544 3.81476 15.4544 3.03138 14.7799C2.24801 14.1053 2.08553 12.9762 1.76059 10.7179L1.57475 9.42634Z" stroke="#F3EA28" stroke-width="0.886824"/>
</svg>
